<?xml version="1.0" standalone="no"?>
<!DOCTYPE svg PUBLIC "-//W3C//DTD SVG 20010904//EN"
 "http://www.w3.org/TR/2001/REC-SVG-20010904/DTD/svg10.dtd">
<svg version="1.0" xmlns="http://www.w3.org/2000/svg"
 width="300.000000pt" height="300.000000pt" viewBox="0 0 300.000000 300.000000"
 preserveAspectRatio="xMidYMid meet">
<metadata>
Created by potrace 1.11, written by Peter Selinger 2001-2013
</metadata>
<g transform="translate(0.000000,300.000000) scale(0.100000,-0.100000)"
fill="#000000" stroke="none">
<path d="M270 1495 l0 -855 113 0 112 0 -1 332 c-1 295 -5 482 -19 923 -3 92
-1 114 7 95 6 -14 16 -38 23 -55 15 -34 203 -498 393 -970 l129 -320 89 0 88
0 49 120 c26 66 100 248 163 405 63 157 119 294 124 305 5 11 28 67 51 125 23
58 47 119 55 135 7 17 23 55 35 85 11 30 26 66 32 80 6 14 11 28 11 32 1 3 4
10 8 14 5 4 8 -278 8 -627 0 -349 0 -644 0 -656 l0 -23 515 0 c483 0 515 1
516 18 5 118 3 154 -11 161 -8 4 -189 7 -402 7 -382 -1 -388 -1 -388 19 0 11
0 354 0 763 l0 742 -148 0 -148 0 -178 -447 c-98 -247 -184 -461 -192 -478 -7
-16 -51 -126 -98 -243 -46 -118 -86 -216 -88 -218 -3 -2 -120 288 -262 644
-142 356 -264 661 -271 677 -7 17 -15 38 -19 48 -5 15 -21 17 -151 17 l-145 0
0 -855z"/>
</g>
</svg>
